<?xml version="1.0" encoding="utf-8"?>
<!-- Generator: Adobe Illustrator 24.3.0, SVG Export Plug-In . SVG Version: 6.00 Build 0)  -->
<svg version="1.1" id="Layer_1" xmlns="http://www.w3.org/2000/svg" xmlns:xlink="http://www.w3.org/1999/xlink" x="0px" y="0px"
	 viewBox="0 0 2599 1733" style="enable-background:new 0 0 2599 1733;" xml:space="preserve">
<style type="text/css">
	.st0{fill:#2A1458;}
</style>
<g>
	<g>
		<g>
			<path class="st0" d="M1398.39,321.24c-10.97,3.7-10.34,14.84-17.42,27.34c-10.4,18.34-3.9,29.46,5.85,29.17
				c9.75-0.28,14.28-12.77,24.08-15.58c0.03-0.01,0.06-0.02,0.09-0.03c0.03-0.01,0.06-0.02,0.09-0.03
				c9.69-3.19,20.46,4.58,28.68-0.67c8.22-5.25,7.33-18.1-11.58-27.41C1415.28,327.69,1409.54,318.13,1398.39,321.24z"/>
			<path class="st0" d="M1369.17,321.26c8.71,6.53,12.35,16.37,8.15,21.98c-4.21,5.61-14.68,4.87-23.38-1.65
				c-8.71-6.53-12.36-16.37-8.15-21.98C1350,314,1360.46,314.74,1369.17,321.26z"/>
			<path class="st0" d="M1422.55,304.82c-3.53,10.29-1.01,20.48,5.63,22.76c6.64,2.27,14.87-4.23,18.4-14.52
				c3.53-10.29,1.01-20.48-5.63-22.76C1434.32,288.03,1426.08,294.53,1422.55,304.82z"/>
			<path class="st0" d="M1386.48,292.77c5.25,10.2,4.17,21.22-2.41,24.6c-6.58,3.38-16.17-2.15-21.41-12.35
				c-5.25-10.21-4.17-21.22,2.41-24.6C1371.64,277.03,1381.23,282.56,1386.48,292.77z"/>
			<path class="st0" d="M1392.21,291c1.4,11.39,8.49,19.89,15.83,18.98c7.34-0.9,12.16-10.87,10.76-22.26
				c-1.4-11.39-8.49-19.89-15.83-18.99C1395.62,269.65,1390.81,279.61,1392.21,291z"/>
		</g>
		<g>
			<path class="st0" d="M1672.7,286.95c-8.97,7.31-4.47,17.52-6.72,31.71c-3.3,20.82,6.69,28.95,15.72,25.27
				c9.03-3.69,8.88-16.97,17.08-23.04c0.03-0.02,0.05-0.04,0.08-0.06c0.02-0.02,0.05-0.04,0.07-0.06
				c7.95-6.39,20.76-2.89,26.62-10.69c5.85-7.8,0.51-19.52-20.47-21.6C1690.78,287.06,1682.05,280.12,1672.7,286.95z"/>
			<path class="st0" d="M1645.35,297.23c10.44,3.05,17.31,10.99,15.35,17.72c-1.97,6.73-12.03,9.72-22.47,6.66
				c-10.44-3.05-17.32-10.99-15.35-17.72C1624.85,297.16,1634.91,294.17,1645.35,297.23z"/>
			<path class="st0" d="M1689.56,263.09c0.31,10.88,6.25,19.53,13.26,19.33c7.01-0.2,12.44-9.18,12.13-20.06
				c-0.31-10.88-6.25-19.53-13.26-19.33C1694.68,243.24,1689.25,252.22,1689.56,263.09z"/>
			<path class="st0" d="M1651.55,264.47c8.5,7.71,11.35,18.41,6.38,23.88s-15.89,3.67-24.39-4.05c-8.5-7.71-11.35-18.41-6.38-23.88
				C1632.14,254.94,1643.06,256.76,1651.55,264.47z"/>
			<path class="st0" d="M1656.3,260.8c5.31,10.17,14.93,15.64,21.49,12.22c6.56-3.42,7.57-14.45,2.26-24.62
				c-5.31-10.17-14.93-15.64-21.49-12.22C1652,239.61,1650.99,250.63,1656.3,260.8z"/>
		</g>
		<g>
			<path class="st0" d="M2483.32,1133.11c-5.36,10.26,2.81,17.86,6.34,31.79c5.19,20.43,17.57,23.96,24.41,17.01
				c6.84-6.95,1.47-19.1,6.6-27.91c0.02-0.03,0.03-0.05,0.05-0.08c0.01-0.03,0.03-0.06,0.04-0.08c4.78-9.01,17.94-10.85,20.23-20.33
				c2.3-9.48-7.24-18.14-27.33-11.77C2499.98,1126.08,2489.21,1123.15,2483.32,1133.11z"/>
			<path class="st0" d="M2462.25,1153.35c10.8-1.32,20.25,3.26,21.09,10.23c0.85,6.96-7.22,13.68-18.02,14.99
				c-10.8,1.32-20.25-3.26-21.09-10.23C2443.38,1161.38,2451.45,1154.67,2462.25,1153.35z"/>
			<path class="st0" d="M2489.4,1104.54c4.58,9.87,13.45,15.48,19.81,12.53c6.36-2.95,7.81-13.35,3.23-23.22
				c-4.58-9.87-13.45-15.48-19.81-12.53C2486.27,1084.27,2484.82,1094.67,2489.4,1104.54z"/>
			<path class="st0" d="M2455.02,1120.8c10.85,3.73,17.7,12.43,15.29,19.43c-2.41,6.99-13.15,9.64-24.01,5.91
				c-10.85-3.73-17.7-12.43-15.29-19.43C2433.42,1119.71,2444.17,1117.07,2455.02,1120.8z"/>
			<path class="st0" d="M2457.93,1115.56c8.89,7.25,19.89,8.48,24.57,2.74c4.67-5.73,1.25-16.26-7.64-23.51
				c-8.9-7.25-19.89-8.48-24.57-2.74C2445.62,1097.79,2449.04,1108.31,2457.93,1115.56z"/>
		</g>
		<g>
			<path class="st0" d="M83.63,759.97c-11.39-2.05-16.21,8.02-28.44,15.56c-17.94,11.06-17.62,23.93-8.94,28.38
				c8.68,4.45,18.66-4.31,28.61-2.05c0.03,0.01,0.06,0.01,0.09,0.02c0.03,0.01,0.06,0.01,0.09,0.02
				c10.03,1.87,15.72,13.87,25.45,13.23c9.73-0.64,15.14-12.33,3.06-29.6C95.32,773.76,94.9,762.61,83.63,759.97z"/>
			<path class="st0" d="M58.02,745.91c4.48,9.91,2.94,20.29-3.45,23.19c-6.39,2.89-15.21-2.8-19.69-12.72
				c-4.48-9.91-2.94-20.29,3.45-23.19C44.72,730.3,53.53,736,58.02,745.91z"/>
			<path class="st0" d="M112.71,757.23c-8.05,7.32-10.75,17.46-6.03,22.65c4.72,5.19,15.07,3.46,23.12-3.86
				c8.05-7.32,10.75-17.46,6.03-22.65C131.12,748.18,120.76,749.91,112.71,757.23z"/>
			<path class="st0" d="M86.92,729.28c-0.32,11.47-6.57,20.6-13.97,20.4c-7.4-0.21-13.13-9.67-12.81-21.14
				c0.32-11.47,6.57-20.6,13.97-20.4C81.5,708.35,87.23,717.81,86.92,729.28z"/>
			<path class="st0" d="M92.79,730.5c-4.26,10.66-2.14,21.52,4.73,24.27c6.87,2.75,15.89-3.67,20.15-14.32
				c4.26-10.66,2.14-21.52-4.73-24.27C106.07,713.43,97.05,719.84,92.79,730.5z"/>
		</g>
		<g>
			<path class="st0" d="M2145.78,368.27c-9.29,6.91-5.24,17.31-8.11,31.39c-4.21,20.65,5.4,29.22,14.59,25.93
				c9.18-3.28,9.62-16.56,18.08-22.27c0.03-0.02,0.05-0.03,0.08-0.05c0.03-0.02,0.05-0.04,0.08-0.06
				c8.23-6.04,20.87-1.97,27.06-9.51c6.19-7.54,1.37-19.48-19.49-22.48C2163.84,369.17,2155.42,361.86,2145.78,368.27z"/>
			<path class="st0" d="M2118.01,377.33c10.3,3.51,16.81,11.74,14.55,18.38c-2.26,6.64-12.45,9.18-22.75,5.66
				s-16.81-11.74-14.55-18.38C2097.52,376.35,2107.71,373.82,2118.01,377.33z"/>
			
				<ellipse transform="matrix(0.0155 -0.9999 0.9999 0.0155 1797.4028 2516.1528)" class="st0" cx="2176.38" cy="345.37" rx="19.7" ry="12.7"/>
			<path class="st0" d="M2125.65,344.88c8.15,8.08,10.53,18.89,5.32,24.14c-5.21,5.25-16.04,2.96-24.19-5.12
				c-8.15-8.08-10.53-18.89-5.32-24.14C2106.67,334.51,2117.5,336.8,2125.65,344.88z"/>
			<path class="st0" d="M2130.55,341.42c4.86,10.4,14.23,16.28,20.93,13.15c6.7-3.13,8.2-14.1,3.34-24.49
				c-4.86-10.4-14.23-16.28-20.93-13.15C2127.19,320.06,2125.69,331.03,2130.55,341.42z"/>
		</g>
		<g>
			<path class="st0" d="M2473.98,254.59c-8.56-7.79-17.99-1.83-32.36-1.95c-21.08-0.18-27.64,10.9-22.66,19.29
				c4.98,8.38,18.1,6.27,25.32,13.48c0.02,0.02,0.05,0.05,0.07,0.07c0.02,0.02,0.05,0.04,0.07,0.06c7.5,6.92,5.93,20.11,14.52,24.74
				c8.58,4.63,19.38-2.39,18.33-23.44C2476.55,272.49,2482.12,262.82,2473.98,254.59z"/>
			<path class="st0" d="M2459.76,229.07c-1.47,10.78-8.3,18.75-15.25,17.8c-6.95-0.95-11.39-10.46-9.92-21.24
				c1.47-10.78,8.3-18.75,15.25-17.8C2456.79,208.78,2461.23,218.29,2459.76,229.07z"/>
			<path class="st0" d="M2500.07,267.74c-10.71,1.92-18.39,9.07-17.15,15.98c1.24,6.9,10.92,10.95,21.63,9.03
				c10.71-1.92,18.39-9.07,17.15-15.98C2520.46,269.86,2510.78,265.82,2500.07,267.74z"/>
			<path class="st0" d="M2493.08,230.35c-6.37,9.55-16.52,13.96-22.67,9.85c-6.15-4.11-5.98-15.17,0.39-24.72
				c6.37-9.55,16.52-13.96,22.67-9.85C2499.62,209.74,2499.45,220.81,2493.08,230.35z"/>
			<path class="st0" d="M2497.4,234.5c-9.27,6.76-13.26,17.09-8.9,23.06c4.36,5.98,15.41,5.34,24.68-1.42
				c9.27-6.76,13.26-17.09,8.9-23.06C2517.73,227.11,2506.68,227.74,2497.4,234.5z"/>
		</g>
		<g>
			<path class="st0" d="M1143.72,131.31c-6.73,9.42,0.29,18.08,1.86,32.36c2.29,20.95,14.07,26.17,21.81,20.24
				c7.74-5.93,4.11-18.71,10.42-26.72c0.02-0.03,0.04-0.05,0.06-0.07c0.02-0.03,0.04-0.05,0.06-0.08
				c5.99-8.26,19.27-8.25,22.87-17.32c3.59-9.07-4.64-18.97-25.43-15.46C1161.19,126.66,1150.94,122.26,1143.72,131.31z"/>
			<path class="st0" d="M1120.03,148.42c10.88,0.2,19.59,6.05,19.47,13.06c-0.13,7.01-9.05,12.54-19.93,12.34
				c-10.88-0.2-19.59-6.05-19.47-13.06C1100.23,153.74,1109.16,148.22,1120.03,148.42z"/>
			<path class="st0" d="M1153.71,103.86c3.16,10.41,11.16,17.2,17.88,15.16c6.71-2.04,9.59-12.13,6.43-22.54
				c-3.16-10.41-11.16-17.2-17.88-15.16C1153.43,83.35,1150.55,93.45,1153.71,103.86z"/>
			<path class="st0" d="M1117.4,115.18c10.23,5.21,15.79,14.77,12.44,21.36c-3.36,6.59-14.37,7.72-24.59,2.51
				c-10.23-5.21-15.79-14.77-12.44-21.36C1096.17,111.1,1107.18,109.97,1117.4,115.18z"/>
			<path class="st0" d="M1121.02,110.4c7.8,8.42,18.52,11.16,23.95,6.14c5.43-5.03,3.5-15.93-4.3-24.34
				c-7.8-8.42-18.52-11.16-23.95-6.14C1111.3,91.08,1113.22,101.98,1121.02,110.4z"/>
		</g>
		<g>
			<path class="st0" d="M610.39,772.18c-9.66-6.38-18.06,0.97-32.27,3.07c-20.85,3.08-25.63,15.04-19.41,22.55
				c6.22,7.51,18.85,3.4,27.1,9.41c0.03,0.02,0.05,0.04,0.08,0.06c0.03,0.02,0.05,0.03,0.08,0.05c8.48,5.68,8.97,18.95,18.16,22.2
				c9.2,3.25,18.78-5.35,14.49-25.99C615.7,789.47,619.7,779.06,610.39,772.18z"/>
			<path class="st0" d="M592.41,749.16c0.21,10.88-5.31,19.81-12.32,19.94c-7.01,0.13-12.87-8.58-13.08-19.45
				c-0.21-10.88,5.31-19.81,12.32-19.94C586.34,729.57,592.2,738.28,592.41,749.16z"/>
			<path class="st0" d="M638.2,781.14c-10.29,3.55-16.77,11.8-14.48,18.43c2.29,6.63,12.48,9.13,22.77,5.58
				c10.29-3.55,16.77-11.8,14.48-18.43C658.68,780.09,648.49,777.59,638.2,781.14z"/>
			<path class="st0" d="M625.52,745.28c-4.82,10.41-14.17,16.34-20.88,13.23c-6.71-3.11-8.25-14.07-3.43-24.48
				c4.82-10.41,14.17-16.34,20.88-13.23C628.8,723.91,630.34,734.87,625.52,745.28z"/>
			<path class="st0" d="M630.44,748.71c-8.12,8.11-10.46,18.93-5.23,24.16c5.23,5.23,16.05,2.9,24.17-5.21
				c8.12-8.11,10.46-18.93,5.23-24.16C649.37,738.27,638.55,740.6,630.44,748.71z"/>
		</g>
		<g>
			<path class="st0" d="M1138.35,455.82c-7.34,8.95-0.9,18.06-0.27,32.41c0.91,21.06,12.31,27.04,20.43,21.63
				c8.12-5.41,5.33-18.4,12.15-25.98c0.02-0.02,0.04-0.05,0.06-0.07c0.02-0.02,0.04-0.05,0.06-0.07
				c6.52-7.85,19.77-6.96,23.96-15.78s-3.38-19.23-24.35-17.09C1156.1,452.32,1146.15,447.26,1138.35,455.82z"/>
			<path class="st0" d="M1113.6,471.33c10.84,0.91,19.15,7.32,18.56,14.31c-0.59,6.99-9.86,11.92-20.7,11
				c-10.84-0.91-19.15-7.32-18.56-14.31C1093.49,475.34,1102.76,470.41,1113.6,471.33z"/>
			<path class="st0" d="M1150.13,429.08c2.47,10.6,10.01,17.9,16.84,16.31c6.83-1.59,10.37-11.47,7.9-22.07
				c-2.47-10.6-10.01-17.9-16.84-16.31C1151.2,408.6,1147.66,418.48,1150.13,429.08z"/>
			<path class="st0" d="M1113.16,437.99c9.86,5.87,14.79,15.78,11.01,22.14c-3.78,6.36-14.84,6.75-24.7,0.89
				c-9.86-5.87-14.79-15.78-11.01-22.14C1092.24,432.52,1103.3,432.12,1113.16,437.99z"/>
			<path class="st0" d="M1117.08,433.46c7.23,8.91,17.75,12.36,23.49,7.7c5.74-4.66,4.54-15.66-2.69-24.57
				c-7.23-8.91-17.75-12.36-23.49-7.7C1108.65,413.54,1109.85,424.54,1117.08,433.46z"/>
		</g>
		<g>
			<path class="st0" d="M1045.51,1243.95c-11.48,1.49-13.03,12.54-22.41,23.42c-13.77,15.96-9.56,28.13,0.06,29.75
				c9.62,1.62,16.49-9.75,26.66-10.59c0.03,0,0.06-0.01,0.09-0.01c0.03,0,0.06-0.01,0.09-0.01c10.13-1.25,19.17,8.48,28.26,4.92
				c9.08-3.55,10.71-16.33-6.02-29.14C1060.83,1253.56,1057.05,1243.06,1045.51,1243.95z"/>
			<path class="st0" d="M1016.85,1238.29c7.27,8.1,8.93,18.46,3.71,23.15c-5.22,4.69-15.34,1.92-22.61-6.17
				c-7.27-8.1-8.93-18.46-3.71-23.15C999.46,1227.43,1009.58,1230.19,1016.85,1238.29z"/>
			<path class="st0" d="M1072.41,1232.55c-5.46,9.41-4.97,19.89,1.09,23.42c6.07,3.52,15.41-1.25,20.88-10.66
				c5.46-9.41,4.97-19.89-1.09-23.42C1087.22,1218.36,1077.87,1223.14,1072.41,1232.55z"/>
			<path class="st0" d="M1039.37,1213.7c3.16,11.03-0.04,21.63-7.15,23.66c-7.11,2.04-15.44-5.25-18.6-16.28
				c-3.16-11.03,0.04-21.63,7.15-23.66C1027.89,1195.38,1036.21,1202.67,1039.37,1213.7z"/>
			<path class="st0" d="M1045.34,1213.09c-0.84,11.44,4.46,21.16,11.84,21.7c7.38,0.54,14.04-8.3,14.88-19.74
				c0.84-11.44-4.46-21.16-11.84-21.7C1052.84,1192.81,1046.18,1201.64,1045.34,1213.09z"/>
		</g>
		<g>
			<path class="st0" d="M2001.52,1575.06c-11.49,1.44-13.08,12.48-22.51,23.32c-13.84,15.9-9.69,28.09-0.07,29.75
				c9.61,1.66,16.53-9.67,26.7-10.48c0.03,0,0.06,0,0.09-0.01c0.03,0,0.06-0.01,0.09-0.01c10.13-1.2,19.14,8.56,28.24,5.05
				c9.1-3.51,10.78-16.28-5.9-29.16C2016.79,1584.74,2013.06,1574.22,2001.52,1575.06z"/>
			<path class="st0" d="M1972.88,1569.27c7.23,8.13,8.85,18.5,3.61,23.16c-5.24,4.66-15.35,1.86-22.59-6.27
				c-7.23-8.13-8.85-18.5-3.61-23.16C1955.53,1558.33,1965.64,1561.14,1972.88,1569.27z"/>
			<path class="st0" d="M2028.46,1563.77c-5.5,9.39-5.06,19.87,0.99,23.42c6.05,3.55,15.42-1.18,20.92-10.57
				c5.5-9.39,5.06-19.87-0.99-23.42C2043.33,1549.65,2033.97,1554.39,2028.46,1563.77z"/>
			<path class="st0" d="M1995.51,1544.78c3.11,11.04-0.13,21.63-7.25,23.63c-7.12,2.01-15.42-5.32-18.53-16.36
				c-3.11-11.04,0.13-21.63,7.25-23.63C1984.1,1526.41,1992.4,1533.74,1995.51,1544.78z"/>
			<path class="st0" d="M2001.48,1544.19c-0.89,11.44,4.37,21.18,11.74,21.75c7.38,0.57,14.08-8.23,14.97-19.67
				s-4.37-21.18-11.74-21.75C2009.07,1523.95,2002.37,1532.75,2001.48,1544.19z"/>
		</g>
		<g>
			<path class="st0" d="M1202.67,732.86c-9.65-6.4-18.06,0.93-32.28,2.99c-20.86,3.03-25.67,14.97-19.47,22.5
				c6.2,7.53,18.84,3.45,27.07,9.48c0.03,0.02,0.05,0.04,0.08,0.06c0.03,0.02,0.05,0.03,0.08,0.05c8.46,5.7,8.92,18.97,18.11,22.24
				c9.19,3.27,18.79-5.3,14.55-25.95C1207.93,750.16,1211.96,739.75,1202.67,732.86z"/>
			<path class="st0" d="M1184.74,709.79c0.18,10.88-5.36,19.79-12.37,19.91c-7.01,0.12-12.85-8.61-13.03-19.49
				c-0.18-10.88,5.36-19.79,12.37-19.91C1178.72,690.18,1184.56,698.91,1184.74,709.79z"/>
			<path class="st0" d="M1230.45,741.88c-10.3,3.52-16.8,11.76-14.53,18.4c2.27,6.64,12.46,9.16,22.75,5.64
				c10.29-3.52,16.8-11.76,14.53-18.4C1250.93,740.88,1240.75,738.36,1230.45,741.88z"/>
			<path class="st0" d="M1217.86,705.99c-4.84,10.4-14.21,16.3-20.91,13.18c-6.71-3.12-8.21-14.09-3.37-24.49
				s14.21-16.3,20.92-13.18C1221.2,684.63,1222.71,695.59,1217.86,705.99z"/>
			<path class="st0" d="M1222.77,709.44c-8.14,8.09-10.51,18.9-5.29,24.15c5.22,5.25,16.04,2.94,24.18-5.15
				c8.14-8.09,10.51-18.9,5.29-24.15C1241.73,699.04,1230.91,701.35,1222.77,709.44z"/>
		</g>
		<g>
			<path class="st0" d="M342.37,917.68c-10.68-4.48-17.56,4.3-31.14,9c-19.92,6.89-22.4,19.53-14.89,25.76
				c7.5,6.23,19.15-0.15,28.37,4.23c0.03,0.01,0.06,0.03,0.09,0.04c0.03,0.01,0.06,0.02,0.09,0.04
				c9.38,4.01,12.32,16.96,21.96,18.45c9.64,1.49,17.46-8.74,9.42-28.22C350.79,933.68,352.8,922.71,342.37,917.68z"/>
			<path class="st0" d="M320.43,898.39c2.22,10.65-1.55,20.45-8.41,21.88c-6.87,1.43-14.23-6.04-16.46-16.7
				c-2.22-10.65,1.55-20.45,8.41-21.88C310.85,880.26,318.21,887.73,320.43,898.39z"/>
			<path class="st0" d="M371.36,921.33c-9.45,5.39-14.29,14.71-10.81,20.8c3.48,6.09,13.96,6.66,23.41,1.26
				c9.45-5.39,14.29-14.71,10.81-20.8C391.29,916.5,380.81,915.93,371.36,921.33z"/>
			<path class="st0" d="M352.26,888.44c-2.81,11.13-10.9,18.68-18.07,16.87c-7.17-1.81-10.71-12.3-7.91-23.42
				c2.81-11.13,10.9-18.68,18.07-16.87C351.52,866.83,355.06,877.31,352.26,888.44z"/>
			<path class="st0" d="M357.72,890.9c-6.47,9.47-6.77,20.54-0.67,24.71c6.11,4.17,16.31-0.12,22.78-9.6
				c6.47-9.47,6.77-20.54,0.66-24.71C374.4,877.13,364.2,881.43,357.72,890.9z"/>
		</g>
		<g>
			<path class="st0" d="M819.05,1007.77c-5.55,10.16,2.48,17.91,5.76,31.9c4.81,20.52,17.13,24.28,24.09,17.46
				c6.97-6.82,1.82-19.07,7.11-27.79c0.02-0.03,0.03-0.05,0.05-0.08c0.02-0.03,0.03-0.06,0.05-0.08
				c4.95-8.92,18.13-10.52,20.61-19.95c2.47-9.44-6.9-18.27-27.11-12.27C835.83,1001.04,825.12,997.92,819.05,1007.77z"/>
			<path class="st0" d="M797.61,1027.61c10.82-1.12,20.18,3.64,20.9,10.61c0.72,6.98-7.47,13.54-18.29,14.66
				c-10.82,1.12-20.18-3.63-20.9-10.61C778.59,1035.29,786.78,1028.73,797.61,1027.61z"/>
			<path class="st0" d="M825.65,979.31c4.4,9.95,13.16,15.72,19.58,12.89c6.42-2.83,8.06-13.2,3.66-23.15
				c-4.4-9.95-13.16-15.72-19.58-12.89C822.9,958.99,821.26,969.36,825.65,979.31z"/>
			<path class="st0" d="M790.98,994.94c10.78,3.93,17.46,12.75,14.93,19.7c-2.53,6.95-13.33,9.4-24.11,5.46
				c-10.78-3.93-17.46-12.75-14.93-19.7C769.41,993.45,780.2,991.01,790.98,994.94z"/>
			<path class="st0" d="M793.99,989.75c8.76,7.41,19.74,8.84,24.51,3.2c4.78-5.65,1.55-16.23-7.21-23.65
				c-8.76-7.41-19.74-8.84-24.51-3.2C782,971.75,785.23,982.34,793.99,989.75z"/>
		</g>
		<g>
			<path class="st0" d="M1652.23,552.86c-8.46-7.9-17.97-2.06-32.33-2.36c-21.07-0.45-27.78,10.55-22.9,18.99
				c4.88,8.45,18.01,6.5,25.15,13.8c0.02,0.02,0.04,0.05,0.07,0.07c0.02,0.02,0.05,0.04,0.07,0.07c7.41,7.01,5.68,20.18,14.2,24.92
				c8.52,4.74,19.41-2.14,18.63-23.2C1654.57,570.79,1660.26,561.19,1652.23,552.86z"/>
			<path class="st0" d="M1638.34,527.16c-1.61,10.76-8.54,18.64-15.48,17.61c-6.94-1.04-11.26-10.6-9.65-21.37
				c1.61-10.76,8.54-18.64,15.48-17.61C1635.63,506.83,1639.95,516.4,1638.34,527.16z"/>
			<path class="st0" d="M1678.15,566.34c-10.73,1.78-18.5,8.84-17.36,15.76c1.15,6.92,10.78,11.09,21.52,9.3
				c10.73-1.78,18.5-8.84,17.36-15.76C1698.52,568.72,1688.89,564.55,1678.15,566.34z"/>
			<path class="st0" d="M1671.64,528.86c-6.49,9.46-16.7,13.74-22.8,9.56c-6.1-4.18-5.78-15.25,0.71-24.71
				c6.49-9.46,16.7-13.74,22.8-9.56C1678.45,508.34,1678.13,519.4,1671.64,528.86z"/>
			<path class="st0" d="M1675.91,533.07c-9.36,6.64-13.47,16.92-9.19,22.95c4.28,6.03,15.34,5.54,24.7-1.1
				c9.36-6.64,13.47-16.92,9.19-22.95C1696.33,525.94,1685.27,526.43,1675.91,533.07z"/>
		</g>
		<g>
			<path class="st0" d="M836.49,113c-9.35-6.82-18.08,0.12-32.38,1.55c-20.97,2.1-26.31,13.82-20.45,21.61
				c5.86,7.8,18.67,4.29,26.62,10.67c0.02,0.02,0.05,0.04,0.07,0.06c0.03,0.02,0.05,0.04,0.08,0.06c8.2,6.07,8.07,19.35,17.1,23.03
				c9.03,3.68,19.01-4.46,15.7-25.28C840.97,130.52,845.47,120.3,836.49,113z"/>
			<path class="st0" d="M819.61,89.15c-0.3,10.88-6.23,19.54-13.24,19.34c-7.01-0.19-12.45-9.17-12.15-20.05
				c0.3-10.88,6.23-19.54,13.25-19.34C814.47,69.3,819.91,78.28,819.61,89.15z"/>
			<path class="st0" d="M863.84,123.25c-10.44,3.06-17.31,11-15.33,17.73c1.97,6.73,12.04,9.71,22.48,6.64
				c10.44-3.06,17.31-11,15.33-17.73C884.35,123.17,874.28,120.19,863.84,123.25z"/>
			<path class="st0" d="M852.87,86.84c-5.3,10.18-14.92,15.65-21.48,12.23c-6.56-3.42-7.58-14.44-2.28-24.62
				c5.3-10.18,14.92-15.65,21.48-12.23C857.15,65.64,858.17,76.66,852.87,86.84z"/>
			<path class="st0" d="M857.61,90.5c-8.49,7.72-11.34,18.41-6.36,23.89c4.98,5.47,15.89,3.65,24.38-4.07
				c8.49-7.72,11.34-18.41,6.36-23.89C877.02,80.96,866.1,82.78,857.61,90.5z"/>
		</g>
		<g>
			<path class="st0" d="M110.7,426.08c-6.6,9.51,0.55,18.07,2.32,32.33c2.59,20.92,14.43,25.97,22.09,19.93
				c7.66-6.04,3.84-18.76,10.04-26.87c0.02-0.03,0.04-0.05,0.06-0.08c0.02-0.03,0.04-0.05,0.05-0.08
				c5.87-8.34,19.15-8.52,22.62-17.64c3.47-9.12-4.91-18.9-25.64-15.09C128.11,421.18,117.79,416.93,110.7,426.08z"/>
			<path class="st0" d="M87.26,443.52c10.88,0.05,19.68,5.77,19.65,12.78c-0.03,7.01-8.87,12.66-19.75,12.62
				c-10.88-0.05-19.68-5.77-19.65-12.78C67.54,449.13,76.38,443.48,87.26,443.52z"/>
			<path class="st0" d="M120.31,398.49c3.31,10.37,11.41,17.04,18.09,14.91c6.68-2.13,9.42-12.27,6.11-22.63
				c-3.31-10.37-11.41-17.04-18.09-14.91C119.73,377.99,117,388.12,120.31,398.49z"/>
			<path class="st0" d="M84.16,410.33c10.3,5.06,16,14.55,12.74,21.19c-3.26,6.64-14.26,7.92-24.56,2.86
				c-10.3-5.06-16-14.55-12.74-21.19C62.87,406.54,73.86,405.26,84.16,410.33z"/>
			<path class="st0" d="M87.71,405.49c7.92,8.31,18.68,10.9,24.03,5.8c5.35-5.1,3.28-15.98-4.64-24.28
				c-7.92-8.31-18.68-10.9-24.03-5.8C77.71,386.31,79.79,397.19,87.71,405.49z"/>
		</g>
		<g>
			<path class="st0" d="M641.99,1590.97c-7.5,8.82-1.22,18.04-0.86,32.4c0.53,21.07,11.82,27.26,20.03,22
				c8.21-5.26,5.67-18.3,12.63-25.76c0.02-0.02,0.04-0.05,0.07-0.07c0.02-0.02,0.04-0.05,0.06-0.07c6.66-7.73,19.9-6.6,24.24-15.34
				c4.34-8.73-3.03-19.29-24.04-17.54C659.79,1587.81,649.94,1582.57,641.99,1590.97z"/>
			<path class="st0" d="M616.95,1606.03c10.82,1.11,19.02,7.67,18.3,14.65c-0.72,6.98-10.07,11.73-20.9,10.62
				c-10.82-1.11-19.02-7.67-18.3-14.65C596.77,1609.68,606.13,1604.92,616.95,1606.03z"/>
			<path class="st0" d="M654.25,1564.46c2.28,10.64,9.68,18.08,16.54,16.61c6.86-1.47,10.58-11.28,8.3-21.92
				c-2.28-10.64-9.68-18.08-16.54-16.61C655.69,1544,651.98,1553.82,654.25,1564.46z"/>
			<path class="st0" d="M617.12,1572.69c9.75,6.05,14.5,16.05,10.6,22.33c-3.9,6.29-14.96,6.48-24.72,0.43
				c-9.75-6.05-14.5-16.05-10.6-22.33C596.3,1566.84,607.37,1566.65,617.12,1572.69z"/>
			<path class="st0" d="M621.12,1568.23c7.07,9.04,17.52,12.68,23.35,8.12c5.83-4.56,4.83-15.58-2.24-24.62
				c-7.07-9.04-17.52-12.68-23.35-8.12C613.06,1548.17,614.06,1559.19,621.12,1568.23z"/>
		</g>
		<g>
			<path class="st0" d="M104.21,1368.71c-11.49-1.38-15.72,8.94-27.49,17.18c-17.27,12.08-16.2,24.91-7.28,28.85
				c8.92,3.94,18.38-5.38,28.44-3.7c0.03,0.01,0.06,0.01,0.09,0.02c0.03,0,0.06,0.01,0.09,0.01c10.12,1.29,16.49,12.94,26.17,11.73
				c9.68-1.2,14.4-13.18,1.34-29.72C116.69,1381.8,115.62,1370.7,104.21,1368.71z"/>
			
				<ellipse transform="matrix(0.8857 -0.4643 0.4643 0.8857 -624.7568 186.6064)" class="st0" cx="66.58" cy="1362.06" rx="12.7" ry="19.7"/>
			<path class="st0" d="M133.09,1364.29c-7.61,7.78-9.72,18.06-4.71,22.96c5.01,4.91,15.25,2.58,22.86-5.19
				c7.61-7.77,9.72-18.06,4.71-22.96C150.94,1354.19,140.7,1356.51,133.09,1364.29z"/>
			<path class="st0" d="M105.72,1337.88c0.35,11.47-5.37,20.95-12.76,21.17c-7.39,0.22-13.67-8.89-14.02-20.36
				c-0.35-11.47,5.37-20.95,12.76-21.17C99.09,1317.3,105.37,1326.41,105.72,1337.88z"/>
			<path class="st0" d="M111.65,1338.76c-3.63,10.88-0.89,21.61,6.12,23.95c7.02,2.34,15.65-4.58,19.29-15.47
				c3.63-10.88,0.89-21.61-6.12-23.95C123.92,1320.95,115.28,1327.87,111.65,1338.76z"/>
		</g>
		<g>
			<path class="st0" d="M403.34,1309.69c-4.9-10.49-15.9-8.62-29.11-14.26c-19.38-8.28-29.71-0.59-28.34,9.07
				c1.37,9.66,14.28,12.76,18.17,22.19c0.01,0.03,0.02,0.06,0.04,0.09c0.01,0.03,0.03,0.06,0.04,0.09
				c4.26,9.27-2.27,20.84,3.87,28.42c6.14,7.58,18.8,5.26,25.94-14.57C398.82,1327.2,407.68,1320.42,403.34,1309.69z"/>
			<path class="st0" d="M400.05,1280.66c-5.51,9.38-14.88,14.11-20.93,10.55c-6.05-3.55-6.48-14.04-0.97-23.42
				c5.51-9.38,14.88-14.11,20.93-10.55C405.13,1260.79,405.56,1271.28,400.05,1280.66z"/>
			<path class="st0" d="M422.35,1331.87c-10.62-2.35-20.47,1.29-21.98,8.14c-1.52,6.85,5.86,14.31,16.49,16.66
				c10.62,2.35,20.47-1.29,21.98-8.14C440.36,1341.68,432.98,1334.22,422.35,1331.87z"/>
			<path class="st0" d="M430.3,1294.68c-9.55,6.36-20.62,6.51-24.72,0.35c-4.1-6.16,0.33-16.31,9.88-22.66
				c9.55-6.36,20.62-6.51,24.72-0.35C444.28,1278.18,439.86,1288.32,430.3,1294.68z"/>
			<path class="st0" d="M432.7,1300.17c-11.16,2.67-18.82,10.66-17.1,17.86c1.72,7.2,12.16,10.87,23.32,8.2
				c11.16-2.67,18.82-10.66,17.1-17.86C454.3,1301.18,443.86,1297.51,432.7,1300.17z"/>
		</g>
		<g>
			<path class="st0" d="M1533.36,1236.98c-9.07-7.19-18.07-0.6-32.41,0.25c-21.04,1.25-26.84,12.75-21.3,20.78
				c5.54,8.03,18.48,5.03,26.18,11.73c0.02,0.02,0.05,0.04,0.07,0.06c0.02,0.02,0.05,0.04,0.07,0.06
				c7.95,6.39,7.29,19.66,16.16,23.7c8.88,4.04,19.17-3.7,16.69-24.63C1537.14,1254.66,1542.04,1244.64,1533.36,1236.98z"/>
			<path class="st0" d="M1517.44,1212.48c-0.74,10.86-7.01,19.27-14.01,18.8c-7-0.48-12.07-9.66-11.34-20.52
				c0.74-10.86,7.01-19.27,14.01-18.8C1513.11,1192.44,1518.18,1201.62,1517.44,1212.48z"/>
			<path class="st0" d="M1560.28,1248.32c-10.56,2.64-17.73,10.3-16.03,17.1c1.7,6.8,11.64,10.18,22.2,7.54
				c10.56-2.64,17.73-10.3,16.03-17.1C1580.77,1249.05,1570.84,1245.68,1560.28,1248.32z"/>
			<path class="st0" d="M1550.77,1211.5c-5.71,9.96-15.54,15.04-21.95,11.36c-6.42-3.68-6.99-14.73-1.29-24.69
				s15.54-15.04,21.95-11.36C1555.9,1190.49,1556.48,1201.54,1550.77,1211.5z"/>
			<path class="st0" d="M1555.37,1215.34c-8.79,7.37-12.07,17.95-7.31,23.61c4.75,5.67,15.73,4.29,24.53-3.09
				c8.79-7.37,12.07-17.95,7.31-23.61C1575.14,1206.59,1564.16,1207.97,1555.37,1215.34z"/>
		</g>
		<g>
			<path class="st0" d="M2368.84,699.68c-4.52-10.66-15.58-9.18-28.58-15.3c-19.07-8.98-29.67-1.66-28.65,8.04
				c1.02,9.7,13.81,13.27,17.36,22.83c0.01,0.03,0.02,0.06,0.03,0.09c0.01,0.03,0.02,0.06,0.04,0.09
				c3.92,9.42-3.02,20.75,2.84,28.54c5.86,7.8,18.6,5.94,26.45-13.62C2363.69,717.01,2372.79,710.56,2368.84,699.68z"/>
			<path class="st0" d="M2366.6,670.55c-5.85,9.18-15.38,13.56-21.3,9.79c-5.92-3.77-5.97-14.26-0.12-23.44
				c5.85-9.18,15.38-13.56,21.3-9.79C2372.39,650.88,2372.45,661.37,2366.6,670.55z"/>
			<path class="st0" d="M2387.04,722.53c-10.53-2.74-20.5,0.55-22.26,7.34c-1.76,6.79,5.34,14.51,15.87,17.25
				c10.53,2.74,20.5-0.55,22.26-7.34C2404.68,732.99,2397.57,725.27,2387.04,722.53z"/>
			<path class="st0" d="M2396.33,685.65c-9.78,6.01-20.84,5.77-24.72-0.54c-3.87-6.3,0.92-16.28,10.69-22.29
				c9.78-6.01,20.84-5.76,24.71,0.54C2410.89,669.66,2406.1,679.64,2396.33,685.65z"/>
			<path class="st0" d="M2398.52,691.23c-11.25,2.26-19.19,9.97-17.73,17.23c1.46,7.25,11.76,11.3,23.01,9.04
				c11.25-2.26,19.19-9.97,17.73-17.23C2420.07,693.01,2409.77,688.97,2398.52,691.23z"/>
		</g>
		<path class="st0" d="M946.96,1588.74c3.64-9.03,12.31,0.5,4.84,6.07c-11.43,8.52-23.73-8.19-14.94-19.42
			c10.31-13.17,32.54-9.17,37.67,8.92c8.1,28.56-31.13,43.93-54.88,19.54c-29-29.78,12.61-68.22,40.67-54.69
			c6.04,2.91,2.94,8.71-2.45,6.38c-10.96-4.74-26.05,1.17-34.27,10.43c-15.79,17.79,2.43,43.38,25.24,42.3
			c14.89-0.7,22.49-12.62,17.56-23.81c-4.28-9.7-15.19-11.55-21.85-6.2C939.24,1582.52,942.08,1591.08,946.96,1588.74z"/>
		<path class="st0" d="M2259.83,1608.75c-8.55-4.67,1.93-12.17,6.59-4.11c7.14,12.35-10.89,22.62-21.03,12.58
			c-11.88-11.76-5.34-33.38,13.23-36.38c29.31-4.73,40.02,36.02,13.04,56.78c-32.95,25.35-66.3-20.44-49.61-46.74
			c3.59-5.66,8.99-1.91,6.06,3.17c-5.98,10.34-1.86,26.01,6.38,35.25c15.84,17.75,43.36,2.61,44.94-20.17
			c1.03-14.87-9.93-23.81-21.61-20.21c-10.13,3.12-13.24,13.74-8.69,20.99C2252.76,1615.7,2261.59,1613.88,2259.83,1608.75z"/>
		<path class="st0" d="M542.42,121.68c-4.64-8.56,8.22-9.18,7.76,0.13c-0.7,14.24-21.42,13.09-24.49-0.84
			c-3.6-16.33,13.63-30.94,30.85-23.38c27.18,11.93,14.07,51.97-19.86,54.76c-41.43,3.41-44.6-53.15-16.3-66.18
			c6.09-2.81,8.59,3.28,3.37,5.95c-10.64,5.44-15.68,20.84-13.77,33.07c3.68,23.5,35.01,25.73,48.69,7.45
			c8.93-11.93,4.58-25.38-7.18-28.7c-10.21-2.88-18.58,4.36-18.69,12.91C532.71,123.68,541.12,126.93,542.42,121.68z"/>
		<path class="st0" d="M1919.3,606.91c5.24-8.21,12.02,2.75,3.65,6.85c-12.8,6.28-21.82-12.4-11.13-21.83
			c12.54-11.06,33.67-3.06,35.4,15.67c2.73,29.56-38.65,37.48-57.53,9.15c-23.05-34.59,24.9-64.76,50-46.32
			c5.4,3.97,1.3,9.1-3.57,5.83c-9.91-6.67-25.83-3.63-35.6,3.97c-18.78,14.6-5.56,43.09,17.06,46.21
			c14.77,2.04,24.43-8.29,21.63-20.18c-2.43-10.32-12.81-14.14-20.35-10.1C1912.85,599.39,1914.07,608.32,1919.3,606.91z"/>
		<path class="st0" d="M1478.61,841.34c-9.7-0.86-3.1-11.93,4.4-6.4c11.48,8.46-0.94,25.08-14.24,19.94
			c-15.6-6.03-18.24-28.46-2.43-38.63c24.97-16.06,51.08,17,34.66,46.82c-20.06,36.41-68.94,7.79-64.16-23
			c1.03-6.63,7.48-5.35,6.82,0.48c-1.35,11.87,8.7,24.59,19.95,29.76c21.62,9.93,40.79-14.95,33.12-36.45
			c-5.01-14.04-18.62-17.85-27.89-9.88c-8.04,6.91-6.63,17.89,0.43,22.71C1474.91,850.54,1482.27,845.33,1478.61,841.34z"/>
		<path class="st0" d="M1301.9,1069.6c1.28-9.65,12.05-2.58,6.2,4.67c-8.96,11.1-25.02-2.04-19.3-15.1
			c6.71-15.32,29.24-16.98,38.7-0.73c14.95,25.65-19.23,50.29-48.3,32.57c-35.5-21.64-4.75-69.22,25.79-63.09
			c6.58,1.32,5.02,7.71-0.78,6.79c-11.8-1.87-24.95,7.61-30.6,18.62c-10.87,21.16,13.14,41.41,34.97,34.69
			c14.25-4.39,18.65-17.82,11.09-27.43c-6.56-8.33-17.58-7.41-22.71-0.57C1292.88,1065.5,1297.75,1073.08,1301.9,1069.6z"/>
		<path class="st0" d="M108.84,1087.84c-0.77-9.71,11.24-5.05,7.04,3.27c-6.43,12.73-24.89,3.26-22.04-10.71
			c3.34-16.38,25.02-22.74,37.69-8.84c20,21.94-8.24,53.2-40.38,41.98c-39.25-13.7-19.18-66.68,11.97-67.1
			c6.71-0.09,6.52,6.48,0.66,6.8c-11.93,0.65-22.79,12.68-26.01,24.63c-6.18,22.97,21.54,37.73,41.47,26.58
			c13.01-7.28,14.49-21.34,5.09-29.14c-8.16-6.77-18.75-3.56-22.32,4.21C99.15,1085.72,105.51,1092.11,108.84,1087.84z"/>
		<path class="st0" d="M2030.89,107.99c-2.81-9.32,9.92-7.32,7.58,1.7c-3.58,13.8-23.63,8.47-23.81-5.79
			c-0.21-16.72,19.62-27.53,34.95-16.64c24.2,17.19,3.24,53.74-30.55,49.6c-41.26-5.06-32.89-61.09-2.54-68.11
			c6.53-1.51,7.75,4.95,2.09,6.51c-11.52,3.17-19.58,17.23-20.19,29.59c-1.17,23.76,29.06,32.29,46.17,17.17
			c11.17-9.88,9.63-23.93-1.21-29.56c-9.41-4.89-19.07,0.5-20.92,8.85C2020.98,107.98,2028.55,112.88,2030.89,107.99z"/>
		<path class="st0" d="M700.74,358.6c-3.34-9.14,9.48-7.88,7.66,1.26c-2.78,13.99-23.1,9.81-24.1-4.41
			c-1.17-16.68,18.01-28.61,33.94-18.62c25.15,15.77,6.32,53.47-27.65,51.27c-41.49-2.68-36.35-59.09-6.46-67.85
			c6.44-1.88,8.02,4.5,2.46,6.38c-11.32,3.83-18.56,18.32-18.46,30.71c0.2,23.79,30.87,30.57,47.08,14.49
			c10.58-10.5,8.24-24.44-2.91-29.44c-9.68-4.34-19.01,1.6-20.37,10.04C690.84,359.15,698.68,363.6,700.74,358.6z"/>
		<path class="st0" d="M333.07,609.82c-0.28-9.73,11.48-4.47,6.87,3.62c-7.06,12.39-25.02,1.99-21.47-11.82
			c4.17-16.19,26.14-21.44,38.09-6.91c18.86,22.93-10.94,52.72-42.46,39.88c-38.5-15.68-15.77-67.57,15.36-66.4
			c6.7,0.25,6.18,6.8,0.31,6.83c-11.95,0.05-23.41,11.5-27.23,23.28c-7.34,22.63,19.6,38.77,40.07,28.65
			c13.36-6.61,15.56-20.57,6.56-28.85c-7.8-7.18-18.54-4.51-22.5,3.07C323.51,607.21,329.53,613.92,333.07,609.82z"/>
		<path class="st0" d="M352.83,1604.97c-9.73,0.19-4.37-11.52,3.68-6.84c12.33,7.17,1.78,25.04-12,21.36
			c-16.16-4.31-21.21-26.33-6.59-38.15c23.09-18.66,52.62,11.39,39.51,42.81c-16.01,38.37-67.7,15.19-66.27-15.93
			c0.31-6.7,6.86-6.13,6.83-0.26c-0.06,11.95,11.3,23.51,23.05,27.43c22.56,7.54,38.94-19.26,28.99-39.82
			c-6.49-13.42-20.44-15.73-28.79-6.81c-7.25,7.74-4.66,18.5,2.88,22.53C350.14,1614.51,356.89,1608.54,352.83,1604.97z"/>
		<path class="st0" d="M1466.73,47.12c7.7-5.92,5.74-5.06,24.77,59.09c1.05,3.53,0.94,6.46-2.72,6.83
			c-1.17,0.12-80.06-4.09-81.21-4.33C1395.95,106.2,1412.36,96.81,1466.73,47.12z M1467.97,56.45
			c-16.47,14.79-32.94,29.6-49.39,44.41c-1.45,1.3,63.12,4.22,64.44,4.15C1482.66,103.44,1469.17,55.37,1467.97,56.45z"/>
		<path class="st0" d="M265.82,150.62c-5.51-8-4.76-6,60.3-21.64c3.58-0.86,6.5-0.6,6.68,3.08c0.06,1.17-8.27,79.74-8.57,80.87
			C321.12,224.39,312.6,207.51,265.82,150.62z M275.2,149.87c13.91,17.22,27.83,34.44,41.77,51.65c1.23,1.52,7.52-62.81,7.51-64.14
			C322.89,137.66,274.19,148.62,275.2,149.87z"/>
		<path class="st0" d="M2125.11,1274.22c-4.62-8.54-4.08-6.48,62.28-15.02c3.65-0.47,6.53,0.1,6.31,3.78
			c-0.07,1.17-16.81,78.39-17.23,79.48C2172.15,1353.52,2165.49,1335.82,2125.11,1274.22z M2134.52,1274.48
			c11.98,18.62,23.96,37.24,35.96,55.84c1.06,1.64,14.24-61.63,14.38-62.95C2183.25,1267.48,2133.65,1273.13,2134.52,1274.48z"/>
		<path class="st0" d="M1882.55,299.4c0.01-9.71-0.51-7.64,61.92,16.43c3.43,1.32,5.69,3.2,3.75,6.33
			c-0.62,1-52.09,60.94-52.99,61.69C1886.17,391.53,1888.74,372.79,1882.55,299.4z M1890.7,304.11c1.67,22.08,3.35,44.15,5.05,66.23
			c0.15,1.94,41.86-47.43,42.61-48.52C1936.89,321.15,1890.58,302.5,1890.7,304.11z"/>
		<path class="st0" d="M1016.72,862.5c1.36-9.62,0.56-7.64,59.03,24.91c3.22,1.79,5.19,3.96,2.83,6.79
			c-0.75,0.9-60.08,53.08-61.07,53.7C1007.46,954.23,1012.62,936.04,1016.72,862.5z M1024.14,868.3
			c-1.43,22.09-2.84,44.19-4.24,66.29c-0.12,1.95,48.06-41.13,48.96-42.11C1067.5,891.62,1024.24,866.69,1024.14,868.3z"/>
		<path class="st0" d="M29.72,128.21c-7.47-6.2-6.2-4.49,52.18-37.18c3.21-1.8,6.09-2.34,7.26,1.15c0.37,1.11,13.66,79,13.67,80.17
			C102.95,184.22,90.17,170.29,29.72,128.21z M38.54,124.94c18.06,12.81,36.13,25.6,54.21,38.39c1.59,1.13-9.79-62.5-10.16-63.77
			C81.14,100.26,37.23,124.01,38.54,124.94z"/>
		<path class="st0" d="M884.02,383.09c-6.22-7.46-5.29-5.54,58.06-27.08c3.48-1.18,6.42-1.19,6.93,2.45
			c0.16,1.16-0.92,80.16-1.12,81.32C945.86,451.48,935.82,435.45,884.02,383.09z M893.29,381.48c15.43,15.88,30.88,31.74,46.33,47.6
			c1.36,1.4,1.72-63.23,1.6-64.56C939.67,364.95,892.17,380.33,893.29,381.48z"/>
		<path class="st0" d="M1730.16,1554.56c0.34-9.71-0.24-7.65,61.31,18.58c3.39,1.44,5.58,3.39,3.53,6.45
			c-0.65,0.97-54.19,59.08-55.11,59.81C1730.56,1646.75,1733.79,1628.12,1730.16,1554.56z M1738.14,1559.55
			c0.9,22.12,1.81,44.24,2.73,66.37c0.08,1.95,43.49-45.94,44.28-47.01C1783.7,1578.19,1738.07,1557.94,1738.14,1559.55z"/>
		<path class="st0" d="M1367.62,562.8c-5.3-8.14-4.59-6.13,60.85-20.04c3.6-0.77,6.51-0.43,6.59,3.25
			c0.03,1.17-10.38,79.49-10.72,80.62C1420.94,638.01,1412.87,620.91,1367.62,562.8z M1377.02,562.3
			c13.45,17.59,26.91,35.17,40.38,52.74c1.19,1.55,9.18-62.59,9.21-63.92C1425.02,551.36,1376.04,561.02,1377.02,562.3z"/>
		<path class="st0" d="M2484.89,1577.79c2.29-9.44,1.3-7.55,56.33,30.52c3.03,2.09,4.78,4.45,2.16,7.03
			c-0.84,0.82-64.95,46.99-66,47.52C2466.76,1668.18,2473.66,1650.58,2484.89,1577.79z M2491.7,1584.28
			c-3.57,21.85-7.12,43.71-10.66,65.56c-0.31,1.93,51.83-36.26,52.82-37.15C2532.59,1611.69,2491.96,1582.69,2491.7,1584.28z"/>
		<path class="st0" d="M488.61,421.24c2.03-9.5,1.1-7.58,57.13,28.99c3.08,2.01,4.9,4.32,2.35,6.97
			c-0.81,0.85-63.66,48.73-64.69,49.29C472.94,512.09,479.36,494.3,488.61,421.24z M495.6,427.54c-2.97,21.94-5.93,43.88-8.88,65.83
			c-0.26,1.93,50.83-37.65,51.79-38.57C537.22,453.84,495.81,425.94,495.6,427.54z"/>
		<path class="st0" d="M2276.15,1038.35c2.28-2.54,4.39-0.5,5.92,0.77c22.26,18.51-0.27-28.09,19.87-31.01
			c6.77-0.98,16.54,1.5,17.69-5.61c0.92-5.71-2.32-13.08-0.45-20.85c2.29-9.52,13.42-6.68,22.17-9.36
			c7.57-2.32,0.44-14.57,2.22-19.91c0.98-2.95,4.33-3.53,6.28-1.11c1.19,1.48,1.67,5.69,2.6,13.74
			c1.71,14.83-10.79,15.29-20.61,16.57c-6.25,0.82-6.2,0.37-4.84,12.78c0.36,3.33,0.9,6.39,0.11,10.03
			c-1.56,7.21-7.63,10.74-15.01,11.03c-8.59,0.33-11.29-1.33-11.66,5.28c-0.56,10.02,2.16,18.53-2.17,25.02
			C2290.19,1057.81,2271.91,1043.08,2276.15,1038.35z"/>
		<path class="st0" d="M2404.55,1406.63c2.8-1.95,4.39,0.52,5.59,2.11c17.41,23.12,6.19-27.4,26.46-25.61
			c6.82,0.6,15.76,5.26,18.51-1.4c2.21-5.35,0.74-13.26,4.35-20.4c4.41-8.74,14.59-3.42,23.73-4.02c7.9-0.52,3.77-14.08,6.73-18.87
			c1.63-2.64,5.03-2.44,6.37,0.36c0.82,1.72,0.31,5.92-0.63,13.97c-1.74,14.83-14.01,12.4-23.87,11.39
			c-6.27-0.64-6.12-1.06-7.65,11.33c-0.41,3.33-0.59,6.42-2.2,9.79c-3.17,6.66-9.9,8.7-17.14,7.29c-8.44-1.65-10.68-3.89-12.56,2.46
			c-2.85,9.62-2.15,18.53-7.86,23.86C2413.74,1428.79,2399.33,1410.26,2404.55,1406.63z"/>
		<path class="st0" d="M507.61,1102.56c3.36-0.57,3.75,2.33,4.16,4.29c5.93,28.33,17.26-22.17,34.84-11.94
			c5.91,3.44,12.02,11.46,17.34,6.6c4.27-3.9,6.31-11.68,12.61-16.61c7.71-6.03,14.66,3.11,23.19,6.45
			c7.37,2.89,9.4-11.14,14.12-14.22c2.6-1.7,5.59-0.07,5.61,3.04c0.01,1.9-2.23,5.49-6.51,12.38c-7.88,12.68-17.95,5.27-26.45,0.17
			c-5.4-3.25-5.09-3.56-11.74,7c-1.79,2.84-3.27,5.56-6.15,7.93c-5.7,4.68-12.66,3.67-18.61-0.69c-6.94-5.08-8.02-8.06-12.41-3.11
			c-6.67,7.5-9.83,15.86-17.26,18.25C506.5,1126.53,501.34,1103.62,507.61,1102.56z"/>
		<path class="st0" d="M2300.63,502.88c1.6-3.01,4.14-1.55,5.93-0.68c26.06,12.6-7.03-27.2,11.81-34.88
			c6.34-2.58,16.42-2.52,15.82-9.71c-0.48-5.77-5.4-12.13-5.46-20.13c-0.07-9.79,11.41-9.71,19.27-14.43
			c6.79-4.08-3.08-14.24-2.64-19.86c0.24-3.09,3.36-4.47,5.83-2.59c1.51,1.15,2.99,5.12,5.83,12.71
			c5.23,13.98-6.79,17.44-16.01,21.05c-5.87,2.3-5.93,1.85-1.62,13.57c1.16,3.15,2.41,5.98,2.52,9.71
			c0.23,7.38-4.82,12.26-11.91,14.32c-8.26,2.39-11.28,1.43-10.04,7.93c1.87,9.86,6.56,17.47,3.92,24.81
			C2318.93,518.39,2297.64,508.49,2300.63,502.88z"/>
		<path class="st0" d="M1870.41,908.8c3.41,0.03,3.28,2.96,3.34,4.95c0.83,28.93,20.9-18.77,36.4-5.59
			c5.21,4.43,9.81,13.41,15.9,9.57c4.9-3.08,8.28-10.39,15.34-14.12c8.65-4.58,13.88,5.65,21.68,10.45
			c6.75,4.14,11.22-9.3,16.41-11.5c2.86-1.21,5.51,0.92,4.98,3.98c-0.32,1.87-3.17,5.01-8.59,11.03
			c-9.99,11.09-18.6,2.01-26.06-4.51c-4.74-4.15-4.38-4.41-12.79,4.82c-2.26,2.48-4.2,4.89-7.46,6.72
			c-6.44,3.6-13.11,1.37-18.19-3.97c-5.93-6.23-6.47-9.35-11.67-5.26c-7.89,6.2-12.48,13.88-20.21,14.91
			C1865.09,932.19,1864.06,908.74,1870.41,908.8z"/>
		<path class="st0" d="M2103.82,659.61c1.91,2.83-0.57,4.38-2.18,5.56c-23.34,17.13,27.33,6.53,25.29,26.77
			c-0.69,6.81-5.46,15.69,1.17,18.52c5.32,2.28,13.25,0.91,20.34,4.6c8.68,4.52,3.24,14.63,3.73,23.78
			c0.42,7.91,14.03,3.94,18.79,6.96c2.62,1.66,2.38,5.06-0.44,6.36c-1.72,0.8-5.92,0.24-13.96-0.8c-14.8-1.92-12.23-14.16-11.1-24
			c0.72-6.26,1.14-6.11-11.23-7.79c-3.32-0.45-6.41-0.67-9.76-2.32c-6.62-3.25-8.58-10-7.08-17.23c1.75-8.42,4.02-10.63-2.3-12.59
			c-9.59-2.96-18.51-2.38-23.76-8.15C2081.55,668.52,2100.26,654.34,2103.82,659.61z"/>
		<path class="st0" d="M1655.3,998.83c2.12,2.68-0.24,4.41-1.76,5.71c-22,18.81,27.74,4.48,27.21,24.81
			c-0.18,6.84-4.27,16.05,2.54,18.38c5.47,1.87,13.28-0.08,20.63,3.07c9,3.86,4.32,14.35,5.49,23.43
			c1.01,7.85,14.28,2.89,19.26,5.55c2.74,1.46,2.74,4.87,0.03,6.38c-1.66,0.92-5.89,0.68-13.98,0.24
			c-14.91-0.81-13.25-13.21-12.86-23.11c0.25-6.3,0.68-6.17-11.78-6.93c-3.35-0.2-6.44-0.19-9.91-1.59
			c-6.85-2.75-9.3-9.34-8.34-16.65c1.12-8.53,3.22-10.9-3.23-12.38c-9.78-2.24-18.63-0.99-24.3-6.36
			C1633.75,1009.38,1651.35,993.85,1655.3,998.83z"/>
		<path class="st0" d="M1844.73,1295.84c1.81-2.89,4.24-1.24,5.97-0.25c25.08,14.46-5.04-27.64,14.31-33.93
			c6.51-2.12,16.56-1.33,16.48-8.53c-0.06-5.79-4.51-12.49-3.99-20.47c0.64-9.77,12.09-8.86,20.26-12.99
			c7.07-3.57-2.04-14.43-1.2-20c0.47-3.07,3.67-4.21,6-2.16c1.43,1.26,2.61,5.33,4.89,13.1c4.21,14.32-8.03,16.9-17.5,19.83
			c-6.02,1.86-6.05,1.42-2.6,13.42c0.92,3.22,1.97,6.14,1.81,9.87c-0.31,7.37-5.7,11.88-12.91,13.42
			c-8.41,1.79-11.35,0.61-10.59,7.18c1.15,9.97,5.28,17.9,2.11,25.03C1861.86,1312.63,1841.35,1301.22,1844.73,1295.84z"/>
		<path class="st0" d="M1425.34,1661.45c3.03-1.56,4.28,1.08,5.26,2.82c14.24,25.2,9.71-26.36,29.57-21.94
			c6.68,1.49,14.93,7.27,18.53,1.03c2.89-5.01,2.47-13.05,6.97-19.65c5.51-8.09,14.91-1.48,24.05-0.89
			c7.9,0.51,5.58-13.47,9.14-17.83c1.96-2.41,5.3-1.76,6.26,1.19c0.59,1.81-0.46,5.91-2.45,13.77
			c-3.66,14.47-15.51,10.47-25.15,8.18c-6.13-1.45-5.93-1.85-9.06,10.23c-0.84,3.24-1.43,6.29-3.46,9.42
			c-4.01,6.19-10.95,7.33-17.94,4.99c-8.15-2.73-10.08-5.25-12.77,0.8c-4.08,9.17-4.55,18.1-10.91,22.62
			C1431.56,1684.62,1419.69,1664.36,1425.34,1661.45z"/>
		<path class="st0" d="M1712.87,62.57c3.37,0.52,2.82,3.4,2.59,5.38c-3.33,28.75,23.38-15.59,36.82-0.32
			c4.52,5.13,7.79,14.67,14.37,11.74c5.29-2.35,9.68-9.09,17.21-11.78c9.22-3.29,12.93,7.58,19.96,13.45
			c6.08,5.07,12.44-7.6,17.89-9.03c3-0.79,5.32,1.7,4.36,4.65c-0.59,1.81-3.85,4.51-10.08,9.68c-11.48,9.54-18.7-0.67-25.14-8.2
			c-4.1-4.79-3.7-4.99-13.35,2.93c-2.59,2.13-4.86,4.24-8.34,5.58c-6.89,2.64-13.17-0.52-17.44-6.53
			c-4.98-7.01-5.06-10.18-10.79-6.88c-8.69,5.01-14.33,11.95-22.14,11.86C1704.25,84.96,1706.59,61.6,1712.87,62.57z"/>
		<path class="st0" d="M2210.26,86.1c3.41,0.14,3.18,3.07,3.17,5.06c-0.13,28.95,21.51-18.07,36.56-4.38
			c5.06,4.6,9.36,13.72,15.58,10.09c5-2.92,8.62-10.1,15.8-13.6c8.8-4.29,13.68,6.11,21.32,11.16c6.6,4.37,11.52-8.92,16.78-10.95
			c2.9-1.12,5.48,1.1,4.85,4.14c-0.38,1.86-3.33,4.9-8.95,10.74c-10.36,10.75-18.66,1.39-25.89-5.37c-4.6-4.3-4.23-4.55-12.94,4.39
			c-2.34,2.4-4.36,4.75-7.68,6.46c-6.56,3.39-13.14,0.94-18.05-4.57c-5.72-6.42-6.15-9.56-11.49-5.64
			c-8.09,5.94-12.93,13.45-20.7,14.23C2204.16,109.3,2203.91,85.83,2210.26,86.1z"/>
		<path class="st0" d="M2520.74,69.66c-2.88,2.22-4.84,19.8-11.41,17c-6.72-2.86,4.95-17.29,4.39-21.94
			c-13.86-9.85-20.23-11.28-17.29-15.97c3.01-4.81,7.57,0.95,20.21,8.46c1.86-0.78,6.48-16.86,8.94-18.96
			c2.77-2.37,6.49,0.05,6.04,3.37c-0.18,1.3-0.41,1.57-6.89,17.54c-1.11,2.74-1.37,2.55,0.7,3.91c13.18,8.68,13.91,8.97,14.95,10.08
			c2.52,2.69-0.31,7.13-3.74,6.09C2533.79,78.38,2522.46,69.59,2520.74,69.66z"/>
		<path class="st0" d="M1735.75,788.14c-0.89,3.52,8.45,18.55,1.55,20.42c-7.05,1.91-6.81-16.64-10.13-19.96
			c-16.98,0.83-22.87,3.65-23.46-1.85c-0.61-5.64,6.53-3.94,21.11-5.86c0.98-1.76-5.34-17.26-4.71-20.42
			c0.71-3.58,5.13-3.98,6.83-1.09c0.67,1.13,0.65,1.49,5.44,18.04c0.82,2.84,0.5,2.85,2.97,2.64c15.72-1.34,16.48-1.56,17.99-1.33
			c3.64,0.56,4.17,5.79,0.83,7.1C1751.4,786.92,1737.06,787.03,1735.75,788.14z"/>
		<path class="st0" d="M1276.63,1410.77c-1.99,3.04,1.96,20.28-5.18,19.81c-7.29-0.49-1.02-17.95-3.09-22.16
			c-16.33-4.74-22.81-3.98-21.58-9.38c1.26-5.53,7.46-1.6,21.87,1.33c1.5-1.35,0.57-18.05,2.19-20.84c1.84-3.15,6.15-2.09,6.82,1.19
			c0.26,1.28,0.13,1.62-0.72,18.83c-0.15,2.95-0.46,2.86,1.95,3.46c15.3,3.85,16.09,3.89,17.44,4.59c3.27,1.71,2.06,6.84-1.53,6.98
			C1291.83,1414.7,1278.23,1410.14,1276.63,1410.77z"/>
		<path class="st0" d="M1548.14,1453.07c-3.34-1.42-19.63,5.48-20.41-1.63c-0.8-7.26,17.5-4.15,21.28-6.92
			c1.81-16.91-0.07-23.16,5.46-22.89c5.66,0.27,2.88,7.06,2.52,21.76c1.59,1.24,17.87-2.6,20.9-1.49c3.42,1.26,3.14,5.69,0.02,6.92
			c-1.22,0.48-1.57,0.41-18.67,2.58c-2.93,0.37-2.89,0.05-3.07,2.52c-1.11,15.74-1.01,16.52-1.47,17.97
			c-1.11,3.51-6.37,3.22-7.14-0.28C1546.93,1468.72,1549.04,1454.54,1548.14,1453.07z"/>
		<path class="st0" d="M744.85,1329.09c-3.26-1.61-19.9,4.37-20.29-2.76c-0.39-7.29,17.7-3.17,21.64-5.72
			c2.75-16.78,1.22-23.12,6.73-22.55c5.64,0.59,2.48,7.22,1.3,21.87c1.52,1.33,17.99-1.6,20.95-0.32c3.35,1.45,2.81,5.85-0.36,6.91
			c-1.24,0.41-1.59,0.32-18.78,1.54c-2.95,0.21-2.89-0.11-3.2,2.35c-1.99,15.66-1.93,16.44-2.47,17.86
			c-1.31,3.45-6.54,2.86-7.12-0.68C742.77,1344.65,745.67,1330.61,744.85,1329.09z"/>
		<path class="st0" d="M2117.43,1004.61c-3.63,0.04-15.77,12.91-19.34,6.71c-3.65-6.33,14.35-10.83,16.71-14.89
			c-5.14-16.21-9.37-21.17-4.21-23.16c5.29-2.03,5.48,5.31,11.06,18.91c1.95,0.5,15.32-9.57,18.54-9.77
			c3.64-0.22,5.16,3.95,2.8,6.33c-0.92,0.93-1.27,1.01-16.05,9.87c-2.53,1.52-2.63,1.21-1.79,3.54c5.31,14.86,5.72,15.53,5.88,17.05
			c0.39,3.66-4.54,5.51-6.65,2.61C2122.61,1019.43,2118.84,1005.59,2117.43,1004.61z"/>
		<path class="st0" d="M1194.9,1639.89c-2.85,2.25-4.61,19.85-11.22,17.12c-6.75-2.78,4.75-17.34,4.14-21.99
			c-13.96-9.7-20.35-11.05-17.47-15.77c2.95-4.84,7.58,0.86,20.3,8.23c1.85-0.8,6.29-16.93,8.72-19.05c2.75-2.4,6.49-0.02,6.08,3.3
			c-0.16,1.3-0.39,1.58-6.69,17.62c-1.08,2.75-1.34,2.56,0.74,3.9c13.28,8.53,14.01,8.81,15.06,9.91c2.55,2.66-0.23,7.14-3.68,6.13
			C1208.05,1648.46,1196.62,1639.81,1194.9,1639.89z"/>
		<path class="st0" d="M2536.75,525.84c-3.36,1.39-9.84,17.85-15.46,13.43c-5.74-4.52,9.29-15.39,9.97-20.03
			c-10.8-13.13-16.57-16.17-12.52-19.93c4.16-3.85,7.06,2.9,17.3,13.45c2-0.26,10.66-14.58,13.58-15.96
			c3.3-1.56,6.25,1.75,4.95,4.83c-0.51,1.21-0.81,1.41-11.23,15.13c-1.79,2.35-1.99,2.1-0.35,3.96
			c10.45,11.82,11.08,12.29,11.8,13.64c1.73,3.26-2.16,6.8-5.21,4.9C2547.07,537.67,2538.42,526.23,2536.75,525.84z"/>
		<path class="st0" d="M79.59,1642.98c-3.56,0.72-13.09,15.62-17.75,10.2c-4.77-5.54,12.08-13.32,13.64-17.74
			c-8.07-14.96-13.16-19.05-8.45-21.97c4.82-2.98,6.37,4.2,14.39,16.52c2.01,0.13,13.27-12.26,16.39-13.05
			c3.53-0.9,5.8,2.92,3.93,5.69c-0.73,1.09-1.06,1.23-13.93,12.69c-2.21,1.96-2.36,1.68-1.1,3.82c7.99,13.61,8.51,14.19,8.96,15.65
			c1.07,3.53-3.43,6.26-6.05,3.81C87.44,1656.57,81.16,1643.68,79.59,1642.98z"/>
		<path class="st0" d="M2530.43,847.14c-3.6,0.46-14.19,14.63-18.45,8.89c-4.35-5.87,13.02-12.41,14.89-16.71
			c-6.96-15.51-11.74-19.96-6.83-22.52c5.03-2.62,6.05,4.65,13.15,17.52c2,0.27,14.12-11.26,17.3-11.83
			c3.59-0.64,5.57,3.33,3.51,5.96c-0.81,1.03-1.15,1.15-14.82,11.64c-2.34,1.8-2.47,1.5-1.38,3.73c6.98,14.15,7.46,14.77,7.79,16.26
			c0.81,3.6-3.87,6-6.31,3.36C2537.27,861.27,2531.94,847.96,2530.43,847.14z"/>
		<path class="st0" d="M844.36,654.22c-2.51-2.63-20.2-2.73-18.1-9.56c2.14-6.98,17.71,3.1,22.28,2.06
			c8.34-14.81,9.09-21.3,14.06-18.87c5.1,2.49-0.15,7.63-6.29,20.99c0.97,1.77,17.45,4.68,19.79,6.89c2.65,2.51,0.63,6.46-2.71,6.36
			c-1.31-0.04-1.61-0.24-18.17-5.01c-2.84-0.82-2.68-1.1-3.81,1.11c-7.25,14.02-7.46,14.77-8.46,15.93
			c-2.41,2.79-7.13,0.44-6.45-3.08C837.06,668.12,844.6,655.93,844.36,654.22z"/>
	</g>
</g>
</svg>
